<svg width="80" height="80" viewBox="0 0 80 80" fill="none" xmlns="http://www.w3.org/2000/svg">
<rect width="80" height="80" fill="white"/>
<path d="M67.1677 53.0735C67.1223 53.2331 62.8067 69.8801 45.8395 69.8801C31.1663 69.8801 24.2159 57.087 24.2159 57.087C23.1484 57.1554 22.1263 56.973 21.1723 56.6309C16.8794 55.0346 14.8124 50.1089 16.2888 45.9586L13.9266 44.1343C4.77291 37.1334 30.7121 5.07095 39.8884 12.3226C39.9339 12.3682 42.069 14.1014 42.069 14.1014C45.3625 12.0946 48.6332 11 51.2908 11C53.176 11 54.7433 11.5473 55.8108 12.7103C58.1958 15.31 57.3326 20.2356 54.0846 25.2525C54.7887 25.9138 55.3565 26.826 55.7881 27.7154C56.8329 28.5135 57.4916 29.7449 57.8323 31.4096C58.1958 33.2796 58.2866 35.9476 58.5137 37.0878C59.3996 37.4755 59.0135 37.2931 59.9447 37.772C60.9214 38.2508 62.1025 38.8665 63.4199 40.1208C65.7594 40.7137 66.6453 43.1993 65.2825 44.8868C65.237 44.9324 65.078 45.1377 64.919 45.3201C64.9645 45.4341 65.396 46.1638 65.7367 47.6461C66.7134 47.8741 67.463 48.4671 67.8718 49.3336C68.5305 51.0439 67.1677 53.0735 67.1677 53.0735ZM60.4444 65.6613V66.3682H60.717V65.6613H60.9895V65.4333H60.1719V65.6613H60.4444ZM61.0577 65.4333V66.3454H61.3075V65.6841L61.512 66.3454H61.7164L61.9208 65.6841V66.3454H62.1707V65.4333H61.7845L61.6255 65.9578L61.4665 65.4333H61.0577Z" fill="#684C46"/>
<path d="M27.6928 46.8049C28.0562 45.8699 28.2379 45.0946 28.2379 45.0946C28.6695 46.3944 28.8739 47.7627 28.783 49.1309C29.1238 48.652 29.5099 47.7855 29.5099 47.7855C30.1686 51.6394 27.3521 55.174 23.6724 55.174C20.4017 55.174 17.7441 52.3691 17.7441 48.9029C17.7441 45.4367 20.4017 42.6318 23.6724 42.6318C24.5129 42.6318 25.3305 42.8142 26.0574 43.1562C26.0574 43.1562 27.3294 43.7948 27.6928 46.8049ZM59.9691 60.3961C64.58 56.7703 65.375 52.3919 65.4431 52.2551C66.5788 50.8868 66.2608 49.5414 64.7617 49.5414C64.2847 49.5414 63.9213 49.6782 63.9213 49.6782C63.9213 49.6782 63.9213 47.6943 63.0127 46.1436C62.3086 46.9417 60.3552 48.5152 57.7658 49.7466C55.3582 50.8868 52.1328 51.913 48.1352 52.027C47.0222 52.0726 46.3181 51.8902 45.932 53.19C45.8184 53.6461 45.8638 54.3302 45.9547 54.5355C46.2727 55.6073 47.0904 56.0861 48.1806 56.3598C48.9983 56.5422 49.8842 56.565 49.8842 56.565C57.9703 56.7931 64.4664 50.4535 64.5573 50.4079C64.6254 50.3395 64.6936 50.2711 64.6936 50.2711C64.6936 50.2711 64.6254 50.4307 64.6027 50.4535C63.4443 53.0988 56.6756 57.8877 49.9296 57.7508H49.9069C48.3396 57.7508 46.4544 57.3404 45.455 56.109C43.8877 54.1706 44.7054 50.9324 47.1812 50.864C47.1812 50.864 47.7491 50.8412 48.0216 50.8412C54.1771 50.6588 59.7192 48.3784 63.6714 43.6351C64.2166 42.951 63.6033 42.016 62.4222 41.9932C62.4222 41.9932 62.3995 41.9932 62.3995 41.9704C60.9912 40.4654 59.7647 39.9409 58.6744 39.3708C56.3803 38.2078 56.6074 39.2111 56.0623 33.5329C55.926 32.0051 55.6307 29.9071 54.2906 29.109C53.9499 28.9037 53.5638 28.8125 53.1549 28.8125C52.7688 28.8125 52.5644 28.9037 52.4962 28.9037C51.7694 29.0633 51.3378 29.4966 50.8154 29.9755C48.3396 32.2559 46.3635 31.6402 43.4107 31.6174C40.6396 31.5946 38.1866 33.5329 37.7323 36.5203C37.5051 38.0709 37.6414 39.6672 37.8913 40.3742C37.8913 40.3742 37.1417 39.8725 36.7783 39.4164C37.2099 42.1301 39.6857 43.9088 39.6857 43.9088C39.2995 44 38.7317 43.9544 38.7317 43.9544C38.7317 43.9544 40.1399 45.0718 41.3665 45.4595C41.0485 45.6647 39.4358 47.261 38.5954 49.4502C37.8231 51.5025 38.1411 53.9882 38.1411 53.9882L38.8225 52.9848C38.8225 52.9848 38.391 55.2424 39.2314 57.4316C39.504 56.7931 40.1399 55.6301 40.1399 55.6301C40.1399 55.6301 40.0491 58.0473 41.2075 60.0312C41.2302 59.5752 41.4119 58.4122 41.4119 58.4122C41.4119 58.4122 42.0706 60.4873 43.6152 61.924C46.5225 64.5236 54.1544 64.9797 59.9691 60.3961Z" fill="#F5DCBA"/>
<path d="M17.1736 44.181C17.1509 44.181 14.9476 42.5391 14.6297 42.0146C12.7671 38.8676 16.0152 32.3913 18.3093 28.7198C23.9877 19.621 33.4594 12.4606 37.775 13.4867L42.1815 15.7671C40.4779 16.7705 38.8198 18.0247 37.8204 18.8457L36.8892 19.6438C36.8892 19.6438 34.1408 21.491 32.778 22.6768C27.3039 27.3744 21.9208 34.6261 19.922 41.6269C19.8992 41.6041 18.2639 42.4251 17.1736 44.181Z" fill="#0788BF"/>
<path d="M37.7489 13.4865C33.456 12.4603 23.9844 19.6436 18.2832 28.7196H18.3059L22.8487 32.2998C27.823 24.3868 34.092 20.2821 34.251 20.1681L33.5242 15.3108L34.8643 14.6723L37.5672 15.5616L37.3628 14.6495L37.7489 13.4865Z" fill="#46B8E3"/>
<path d="M42.1867 15.7685L37.8256 18.8471L37.5303 19.0979L33.669 15.9281L33.5781 15.3352L34.9182 14.6967C34.9864 14.7195 37.5076 15.5405 37.6212 15.5861L37.6666 13.8986L37.7802 13.5109L38.9613 13.0548C38.9386 13.032 42.1867 15.7685 42.1867 15.7685Z" fill="#FFD14F"/>
<path d="M50.7938 12.7363C47.9092 12.7363 44.6611 14.2642 42.1853 15.7693C41.8446 15.9745 41.4812 16.1797 41.1405 16.4078L39.8458 15.3132L40.3228 16.9551C40.1411 17.0691 39.9594 17.2059 39.8004 17.3199L37.1201 16.499L38.8918 18.0041C38.483 18.3233 38.1195 18.597 37.8243 18.8478L33.5541 15.3132L33.7812 16.9095L36.893 19.646C36.893 19.646 34.1446 21.4931 32.7818 22.6789C27.3078 27.3765 21.9246 34.6282 19.9258 41.629L20.0394 41.5606C20.0621 41.5606 20.0621 41.5378 20.0848 41.5378C20.1302 41.515 20.1983 41.4694 20.2438 41.4466C20.2892 41.4238 20.3119 41.401 20.3573 41.401C20.4255 41.3782 20.4709 41.3554 20.5391 41.3326C20.5618 41.3098 20.6072 41.3098 20.6299 41.287C20.6981 41.2642 20.7435 41.2414 20.8116 41.2186C20.8343 41.2186 20.8798 41.1958 20.9025 41.1958C20.9933 41.173 21.0842 41.1274 21.175 41.1046C22.5379 40.6941 24.3777 40.4432 26.5355 41.3554C27.6258 38.5961 28.9204 35.814 30.9647 33.1231C32.6228 30.934 34.2128 28.9956 36.1207 27.9238C39.7322 24.5032 49.4991 20.8774 52.6337 24.0243C53.3832 22.8157 54.0192 21.6527 54.5416 20.2161C55.859 16.7042 55.8817 12.7363 50.7938 12.7363Z" fill="#122030"/>
<path d="M38.3959 15.8162L37.7599 13.4902L37.3965 14.6532L37.6236 15.5426L38.3959 15.8162Z" fill="#122030"/>
<path d="M63.9386 49.6762C63.9386 49.6762 63.9386 47.6923 63.0301 46.1416C62.3259 46.9398 60.3726 48.5132 57.7832 49.7447C55.3755 50.8849 52.1502 51.911 48.1525 52.0251C47.0396 52.0707 46.3354 51.8882 45.9493 53.1881C45.9266 53.3021 45.9039 53.4161 45.8812 53.5529V53.5757C45.8812 53.6213 45.8812 53.667 45.8812 53.7126C45.8812 53.8266 45.8812 53.9406 45.8812 54.0318V54.0546C45.8812 54.123 45.8812 54.1686 45.9039 54.2143C45.9266 54.4195 45.972 54.5107 45.972 54.5335V54.5563C46.29 55.6281 47.1077 56.107 48.1753 56.3578C48.9929 56.5403 49.8788 56.5631 49.8788 56.5631C56.4885 56.7455 62.0307 52.5724 63.8705 50.9989C63.9386 50.5428 63.9613 50.2463 63.9386 49.6762ZM44.9726 14.2616C46.5399 13.5318 48.2434 12.9617 49.8561 12.7793C48.2434 13.1442 46.29 13.9879 43.9505 15.4018C43.9051 15.4246 38.4537 19.1188 35.1148 22.4254C33.2977 24.2269 26.0293 32.9837 26.0293 32.9837C27.3694 30.4524 28.2325 29.221 30.3449 26.5529C31.526 25.0479 32.798 23.5884 34.1154 22.243C34.547 21.7869 35.0012 21.3536 35.4328 20.9203C35.6145 20.7835 39.4304 16.884 44.9726 14.2616Z" fill="white"/>
<path d="M59.9664 60.3925C59.1714 61.0082 58.3537 61.5555 57.5133 61.9887C55.5599 61.2362 54.3788 59.6627 54.3788 59.6627C54.3788 59.6627 56.0369 59.2751 58.2628 58.1349C60.9658 56.7438 63.5097 54.7599 65.4404 52.2514C65.3722 52.3882 64.5773 56.7666 59.9664 60.3925ZM54.674 39.3215C53.7428 38.6602 52.1755 39.1847 51.8348 40.3021C52.38 40.3249 52.9478 40.7354 52.9251 41.2827C53.3112 40.9178 53.8564 40.6898 54.3788 40.7126C54.1289 40.2793 54.2652 39.5724 54.674 39.3215ZM44.8163 52.8899C45.1115 51.7725 45.952 50.906 47.2239 50.8604C47.2239 50.8604 47.7918 50.8376 48.0643 50.8376C54.2198 50.6551 59.7619 48.3747 63.7141 43.6315C64.2593 42.9474 63.646 42.0124 62.4649 41.9896H62.4422C62.2377 42.1948 62.215 42.5825 61.8743 43.1754C60.6705 45.2734 59.0124 46.2311 56.7864 47.3485C49.9723 50.7463 46.4517 49.1729 45.0434 51.248C44.6345 51.8637 44.6118 52.5479 44.8163 52.8899ZM57.1271 38.6146C56.4684 38.1357 56.4457 37.3376 56.105 33.5521C55.9914 32.3435 55.787 30.7928 55.0602 29.7894C54.9012 29.6526 54.6968 29.493 54.3788 29.493C53.9245 29.4702 53.3794 29.9491 53.0841 30.2911C52.2437 31.5225 51.426 32.2979 49.995 32.982C48.5413 33.6433 47.1785 33.8713 45.7475 33.8257C44.7027 33.8029 43.7941 33.6205 42.8856 33.5977C41.2275 33.5749 39.7965 34.1222 38.729 35.4448C38.0021 36.357 37.7296 37.3148 37.6387 38.4778C37.6387 38.6146 37.6387 38.7514 37.6614 38.8654C37.6841 39.0479 37.6841 39.2303 37.7068 39.3899C37.775 39.9828 37.8885 40.2793 37.8885 40.2793C37.8885 40.2793 37.8885 40.2793 37.8885 40.3021C37.8885 40.3249 37.9113 40.3477 37.9113 40.3933C37.9113 40.3933 37.1617 39.8916 36.7983 39.4355C37.1617 41.7159 38.9334 43.3122 39.5239 43.7911C39.5694 43.8139 39.5921 43.8367 39.6148 43.8595C39.6602 43.9051 39.6829 43.9279 39.6829 43.9279C39.2968 44.0191 38.729 43.9735 38.729 43.9735C38.729 43.9735 40.1372 45.0909 41.3638 45.4786C42.9764 44.1104 44.839 43.5631 46.3381 43.4034C47.2466 42.8333 48.246 42.2632 49.2909 41.7387C48.9729 39.732 50.7446 37.7252 52.9705 37.52C54.6513 37.406 55.469 38.1585 56.0596 38.9567C56.3776 38.8654 56.741 38.7514 57.1499 38.6146C57.1726 38.6374 57.1499 38.6374 57.1271 38.6146ZM57.9448 52.0918C57.9221 52.0918 57.8994 52.0918 57.8767 52.0918C57.1953 52.2514 50.2903 54.9423 45.9065 53.5512C45.8838 53.8021 45.8838 54.3038 45.9974 54.509C46.6561 54.6458 47.4965 54.7371 48.4732 54.7371C54.2198 54.7599 58.3764 52.1374 57.9448 52.0918ZM25.7367 51.5673C26.1001 51.1796 26.2364 50.6551 26.1455 50.1534C26.0092 49.4237 25.1915 49.2869 24.6464 48.7168L24.6237 48.694L24.601 48.6712C24.3511 48.3975 24.283 48.0783 24.283 47.7818C24.3284 47.0293 24.9871 46.824 25.3278 46.9609C25.3278 46.9609 25.7367 47.0521 26.0547 47.5082C26.0092 47.3713 26.0092 47.1205 25.7594 46.7784C25.3505 46.2083 24.4193 45.6154 23.1246 45.9119C22.8747 45.9575 23.011 45.9347 22.7839 46.0031C22.7384 46.0031 22.7157 46.0259 22.693 46.0259C22.6249 46.0715 22.5567 46.0943 22.4886 46.1171C22.4432 46.1399 22.2615 46.2311 22.0116 46.4136C20.5352 48.2835 23.0337 51.7725 25.7367 51.5673Z" fill="#EABE8D"/>
<path d="M47.4994 39.7795C47.613 39.9619 47.6584 40.0988 47.613 40.1672C47.5221 40.2812 47.1587 40.1216 46.6135 39.9163C45.2507 39.4146 44.2513 39.3234 42.5024 40.0075C42.0481 40.19 41.7301 40.304 41.5938 40.2812C41.3439 40.2356 41.5938 39.7795 42.1389 39.3462C43.2292 38.4797 44.7283 38.206 46.0003 38.6849C46.5454 38.8901 47.1814 39.3006 47.4994 39.7795ZM47.2495 41.1705C46.8861 40.8969 46.2047 40.6917 45.4779 40.8057C45.3189 40.8285 45.1826 40.8741 45.0463 40.9197C45.0009 40.9425 44.9554 40.9425 44.91 40.9653C44.6147 41.0793 44.3649 41.2162 44.115 41.467C43.8425 41.7406 43.7516 41.9915 43.8425 42.0599C43.9333 42.1283 44.115 42.0371 44.4103 41.9003C45.4324 41.467 46.1366 41.467 46.818 41.5126C47.1587 41.5354 47.3631 41.5582 47.4085 41.467C47.4767 41.4214 47.4085 41.3074 47.2495 41.1705ZM25.3989 46.3927C25.5579 46.5295 25.6941 46.6663 25.785 46.8031C26.103 47.2364 25.9894 47.5101 26.1257 47.6241C26.1711 47.6697 26.2393 47.6925 26.3074 47.6469C26.4891 47.5785 26.58 47.282 26.58 47.0996C26.6254 46.6207 26.3756 46.0962 26.0349 45.7085C25.8304 45.4805 25.5579 45.2525 25.2399 45.07C24.9219 44.8876 24.5585 44.7508 24.1496 44.7052C23.4455 44.5912 22.7641 44.728 22.5596 44.7964C22.4688 44.8192 22.3325 44.842 22.2416 44.8876C21.106 45.3437 20.3564 46.1646 20.0157 47.2364C19.9021 47.6469 19.834 48.0574 19.834 48.4222C19.834 48.7415 19.8794 49.0379 19.9248 49.2888C20.0157 49.7221 20.2201 50.2237 20.5381 50.5658C20.9242 50.9763 21.3558 50.9079 21.1741 50.5202C21.1287 50.4062 20.9015 49.9729 20.8561 49.1748C20.8334 48.6503 20.9015 48.103 21.106 47.6241C21.2195 47.3504 21.3558 47.0996 21.5375 46.8716C21.9237 46.3927 22.4006 46.1874 22.4688 46.1418C22.5369 46.0962 22.6051 46.0734 22.6732 46.0506C22.6959 46.0278 22.7414 46.0278 22.7641 46.0278C23.0139 45.9594 22.8776 45.9822 23.1048 45.9366C24.0588 45.7314 24.8537 45.9594 25.3989 46.3927ZM25.1944 48.1714C25.0582 48.0802 25.0127 47.989 24.9673 47.8521C24.9219 47.6013 24.9446 47.4645 25.149 47.3276C25.308 47.2136 25.4443 47.168 25.4443 47.0996C25.4443 46.9628 24.9219 46.8488 24.5585 47.2136C24.2632 47.5329 24.1496 48.217 24.6493 48.7415C25.1944 49.3344 26.0349 49.4712 26.1711 50.2009C26.1938 50.315 26.1938 50.429 26.1938 50.543C26.1938 50.6798 26.1484 50.8623 26.1484 50.8851C25.9894 51.592 25.308 52.2761 24.195 52.1165C23.9906 52.0937 23.8543 52.0709 23.8089 52.1165C23.718 52.2305 24.195 52.7778 25.0809 52.755C25.944 52.7322 26.7844 52.0937 27.057 51.1359C27.057 51.1131 27.1478 50.8395 27.1478 50.6114C27.1705 50.429 27.1478 50.2466 27.1251 50.0413C26.898 48.7871 25.6714 48.5363 25.1944 48.1714ZM54.9722 39.3234C54.6315 39.2778 54.3135 39.5971 54.2227 40.076C54.1545 40.532 54.359 40.9653 54.6997 41.0109C55.0404 41.0565 55.3584 40.7373 55.4492 40.2584C55.5174 39.8023 55.3129 39.369 54.9722 39.3234ZM51.2699 40.6917C51.0882 41.0337 51.3153 41.5126 51.7696 41.7634C52.2239 42.0143 52.769 41.9459 52.9507 41.6038C53.1324 41.2618 52.9053 40.7829 52.451 40.532C51.974 40.2812 51.4516 40.3496 51.2699 40.6917ZM37.687 26.9408C44.0696 22.7905 50.4522 22.3116 52.6327 23.9991C52.6327 23.9991 52.5873 23.8851 52.5873 23.8623C52.0421 22.6765 50.7475 21.8555 49.5891 21.5135C49.7935 21.7187 50.0888 22.1064 50.2023 22.3344C49.3392 21.7415 48.1808 21.1942 46.977 20.9434C46.977 20.9434 47.1133 21.0574 47.136 21.0802C47.3858 21.3082 47.7038 21.6503 47.8174 21.9695C46.659 21.5135 45.2053 21.2398 43.956 21.4907C43.9333 21.4907 43.797 21.5363 43.797 21.5363C43.797 21.5363 43.956 21.5819 44.0015 21.5819C44.4103 21.6959 45.0009 21.9695 45.2734 22.3116C43.2065 21.9467 40.9124 22.3572 39.6858 23.0413C39.8448 23.0413 39.8448 23.0413 39.9811 23.0413C40.4354 23.0641 41.3439 23.1097 41.7301 23.3606C40.4127 23.6342 38.5274 24.2043 37.5053 25.0937C37.687 25.0709 38.7091 24.9341 39.118 25.0025C33.5077 28.2178 30.9637 33.0751 30.9637 33.0751C32.5991 30.9087 34.7569 28.8336 37.687 26.9408Z" fill="#9C7356"/>
<path d="M52.748 36.0145C52.748 35.5812 52.8162 34.8515 53.225 34.7147C53.9292 34.4638 54.8604 36.2882 54.9059 37.9072C54.338 37.6336 53.6793 37.4968 53.0206 37.5652C52.8616 37.0407 52.7708 36.539 52.748 36.0145Z" fill="#684C46"/>
</svg>
