<svg width="80" height="80" viewBox="0 0 80 80" fill="none" xmlns="http://www.w3.org/2000/svg">
<rect width="80" height="80" fill="white"/>
<path d="M66.3378 23.9791C64.3787 24.8089 62.4195 25.3622 60.1804 25.6388C62.4195 24.2557 64.0988 22.3194 64.9384 19.8298C62.9793 20.9363 60.4603 22.0428 58.2213 22.3194C55.9822 20.3831 53.1834 19 50.1047 19C44.2272 19 39.1893 23.7025 39.1893 29.788C39.1893 30.6179 39.1893 31.4477 39.4692 32.2776C30.513 31.7243 22.6763 27.5751 17.3586 21.2129C16.5189 22.8726 15.9592 24.5323 15.9592 26.4686C15.9592 30.0646 17.9183 33.384 20.7172 35.3204C19.0379 35.3204 17.3586 34.7671 15.9592 33.9373C15.9592 39.193 19.5976 43.3422 24.6355 44.4487C23.7959 44.7253 22.6763 44.7253 21.8367 44.7253C21.2769 44.7253 20.4373 44.7253 19.8775 44.4487C21.2769 48.5979 25.1953 51.6407 29.9532 51.9173C26.3148 54.6835 21.5568 56.6198 16.5189 56.6198C15.6793 56.6198 14.8396 56.6198 14 56.3432C18.758 59.386 24.3556 61.0457 30.513 61.0457C50.3846 61.0457 61.3 44.7253 61.3 30.6179C61.3 30.0646 61.3 29.788 61.3 29.2348C62.9793 28.1283 64.9384 26.192 66.3378 23.9791Z" fill="#2DAAE1"/>
</svg>
