<?xml version="1.0" encoding="UTF-8"?>
<svg width="155px" height="20px" viewBox="0 0 155 20" version="1.1" xmlns="http://www.w3.org/2000/svg" xmlns:xlink="http://www.w3.org/1999/xlink">
	<path fill="#6C6E70" d="M43.0942458,5.85611316 L41.6377725,5.85611316 L41.6377725,8.78523819 L44.2306684,8.78523819 L44.2306684,14.7280644 C44.2306684,18.1596979 46.2040872,19.8615686 49.2201183,19.75 C50.0595711,19.7270565 50.7535855,19.6123388 51.5062298,19.3653584 L51.5062298,17.4664432 L51.5003214,16.2621324 C50.9921956,16.5136115 49.9813979,16.6809644 49.4455479,16.6809644 C48.3747569,16.6809644 47.6416559,16.0389952 47.6416559,14.7280644 L47.6416559,8.78523819 L51.5025938,8.78523819 L51.5025938,5.85611316 L47.6698346,5.85611316 L47.6698346,0.0950357337 L44.2306684,0.0819894081 L44.2306684,4.72578563 C44.1928673,5.48614713 43.7766044,5.84587867 43.0942458,5.85611316 Z M17.9672007,19.5828721 L17.9672007,0.0808647249 L21.3777337,0.0808647249 L21.3777337,19.5828721 L17.9672007,19.5828721 Z M123.127923,1.72312719 C123.127923,4.02107998 126.646626,4.02107998 126.646626,1.72312719 C126.646626,-0.57437573 123.127923,-0.57437573 123.127923,1.72312719 Z M68.0048652,5.604589 C71.2745046,5.604589 73.8960338,8.0321053 73.8960338,12.3562874 L73.8960338,19.5821523 L70.457322,19.5821523 L70.457322,12.3841796 C70.457322,10.2918189 69.3015404,8.70151677 67.1031464,8.70151677 C64.9888341,8.70151677 63.5512653,10.4591717 63.5512653,12.5515324 L63.5512653,19.5821523 L60.1407323,19.5821523 L60.1407323,5.79983401 L63.4367325,5.79983401 L63.4385505,7.66905755 C64.848395,6.30189261 66.2573306,5.604589 68.0048652,5.604589 Z M123.219232,19.5828721 L123.219232,5.77266166 L126.657489,5.77266166 L126.657489,19.5828721 L123.219232,19.5828721 Z M135.279493,10.9310438 C137.901022,11.0934481 141.227019,11.6620879 141.227019,15.2079893 C141.227019,17.563076 139.22633,19.5929043 135.251314,19.5929043 C133.053374,19.5929043 130.854526,19.2411033 128.825204,17.2108252 L130.516381,14.8561883 C131.502636,15.9115911 133.757842,16.69662 135.307671,16.7236124 C136.604801,16.7510547 137.816486,16.1014376 137.816486,15.1270121 C137.816486,14.2065713 137.027482,13.8273281 135.054063,13.7193585 C132.432534,13.529512 129.304697,12.6095211 129.304697,9.57782496 C129.304697,6.49169415 132.630239,5.409299 135.167232,5.409299 C137.337448,5.409299 138.972267,5.81508471 140.578908,7.16875346 L138.661847,9.33399363 C137.675138,8.44054527 136.547989,8.14317902 135.22359,8.14317902 C133.588315,8.14317902 132.686597,8.6303918 132.686597,9.46940549 C132.686597,10.3358615 133.504234,10.8226244 135.279493,10.9310438 Z M86.8282442,12.8587959 L86.8282442,5.82817603 L90.2392317,5.82817603 L90.2392317,19.6104943 L86.9377775,19.6104943 L86.9414135,17.7412708 C85.5038447,19.1363279 84.1789908,19.8057393 82.2342053,19.8057393 C78.9082084,19.8057393 76.4839302,17.3224387 76.4839302,13.0540409 L76.4839302,5.82817603 L79.9230965,5.82817603 L79.9230965,13.0261488 C79.9230965,15.1185095 81.0788781,16.7088116 83.2772721,16.7088116 C85.3906754,16.7088116 86.8282442,14.9511566 86.8282442,12.8587959 Z M117.190351,19.5828721 L117.190351,0.0808647249 L120.600884,0.0808647249 L120.600884,19.5828721 L117.190351,19.5828721 Z M108.688379,5.63270608 C112.634308,5.63270608 114.579093,8.03188036 114.579093,12.1612673 L114.579093,19.5823772 L111.140382,19.5823772 L111.140382,12.1612673 C111.140382,10.3473782 110.379556,8.81286041 108.519307,8.81286041 C106.658603,8.81286041 105.502821,10.4036124 105.502821,12.2170516 L105.502821,19.5823772 L102.064564,19.5823772 L102.064564,12.2170516 C102.064564,10.4036124 101.106033,8.75752599 99.2176053,8.75752599 C97.3573559,8.75752599 96.2579317,10.4036124 96.2579317,12.2170516 L96.2579317,19.5823772 L92.8192199,19.5823772 L92.8192199,5.80005895 L96.2611131,5.80005895 L96.2579317,7.47403748 C96.9910327,6.07898039 98.5976737,5.57692179 99.9225276,5.57692179 C101.585072,5.57692179 103.24807,6.24633325 104.037528,8.14344894 C105.277392,6.19054897 106.884033,5.63270608 108.688379,5.63270608 Z M35.6532051,5.85485351 L39.0564662,5.85485351 L39.0564662,19.5822873 L35.658659,19.5822873 L35.6504781,17.5776519 C34.8628377,19.1922471 32.6948949,19.9718775 31.1468838,19.9997697 C27.0373369,20.0276618 23.9972176,17.5218676 23.9972176,12.7046243 C23.9972176,7.97150737 27.177776,5.49315538 31.2314199,5.52104753 C33.0889424,5.52104753 34.8628377,6.38390451 35.6504781,7.74837021 L35.6532051,5.85485351 Z M27.4313844,12.7046243 C27.4313844,15.3219871 29.2607281,16.881248 31.5409313,16.881248 C36.9453354,16.881248 36.9453354,8.55589278 31.5409313,8.55589278 C29.2607281,8.55589278 27.4313844,10.0872615 27.4313844,12.7046243 Z M150.331515,16.6809644 C150.867365,16.6809644 151.878162,16.5136115 152.386288,16.2621324 L152.392197,17.4664432 L152.392197,19.3653584 C151.639552,19.6123388 150.945083,19.7270565 150.106085,19.75 C147.090054,19.8615686 145.116635,18.1596979 145.116635,14.7280644 L145.116635,8.78523819 L142.523739,8.78523819 L142.523739,5.85611316 L145.116635,5.85611316 L145.116635,0.0819894081 L148.555801,0.0950357337 L148.555801,5.85611316 L152.388561,5.85611316 L152.388561,8.78523819 L148.527168,8.78523819 L148.527168,14.7280644 C148.527168,16.0389952 149.260269,16.6809644 150.331515,16.6809644 Z M54.091672,1.72312719 C54.091672,4.02107998 57.6103749,4.02107998 57.6103749,1.72312719 C57.6103749,-0.57437573 54.091672,-0.57437573 54.091672,1.72312719 Z M54.1145786,19.5828721 L54.1145786,5.77266166 L57.5528358,5.77266166 L57.5528358,19.5828721 L54.1145786,19.5828721 Z M153.690144,2.65180063 C152.967497,2.65180063 152.381198,2.07056434 152.381198,1.35571567 C152.381198,0.633669031 152.967497,0.0587309587 153.690144,0.0587309587 C154.4187,0.0587309587 155,0.633669031 155,1.35571567 C155,2.07056434 154.4187,2.65180063 153.690144,2.65180063 Z M153.690144,0.254875716 C153.07294,0.254875716 152.578903,0.743887988 152.578903,1.35571567 C152.578903,1.96079525 153.07294,2.45610575 153.690144,2.45610575 C154.30235,2.45610575 154.802295,1.96079525 154.802295,1.35571567 C154.802295,0.743887988 154.30235,0.254875716 153.690144,0.254875716 Z M154.048741,2.10160559 L153.659239,1.51452094 L153.400176,1.51452094 L153.400176,2.10160559 L153.189745,2.10160559 L153.189745,0.615224225 L153.80195,0.615224225 C154.05465,0.615224225 154.289169,0.792924177 154.289169,1.06824663 C154.289169,1.39845363 153.993747,1.50822272 153.906484,1.50822272 L154.308258,2.10160559 L154.048741,2.10160559 Z M153.80195,0.79877253 L153.400176,0.79877253 L153.400176,1.32512429 L153.80195,1.32512429 C153.931481,1.32512429 154.073738,1.22075368 154.073738,1.06824663 C154.073738,0.902693261 153.931481,0.79877253 153.80195,0.79877253 Z M3.33358697,6.6772219 L3.33358697,16.2604228 L6.8513809,16.2604228 L6.8513809,19.5602435 L0.000318146738,19.5602435 L0.000318146738,19.1953962 L0.000318146738,6.6772219 L3.33358697,6.6772219 Z M3.32826938,3.38491416 L0,3.38491416 L0,0.0846436606 L7.52053439,0.0846436606 C9.50667903,0.0846436606 11.3982886,0.788245495 12.8458563,2.06498591 C14.336601,3.37996555 15.2224124,5.18710658 15.3396722,7.15305288 C15.4673854,9.27735458 14.723831,11.3017844 13.2439942,12.854747 C11.7850642,14.3879152 9.73483569,15.2669676 7.61961438,15.2669676 L6.86287964,15.2669676 L6.86287964,11.9680468 L7.61961438,11.9680468 C8.82039107,11.9680468 9.98571712,11.466438 10.8183526,10.5927841 C11.6605324,9.7083332 12.0845766,8.55620769 12.0127663,7.34829789 C11.8773267,5.08858433 9.94617602,3.38491416 7.52053439,3.38491416 L3.32826938,3.38491416 Z" id="Combined-Shape"></path>
</svg>
